<?xml version="1.0" encoding="UTF-8"?>
<svg id="Layer_2" data-name="Layer 2" xmlns="http://www.w3.org/2000/svg" viewBox="0 0 2848.85 591.79">
  <defs>
    <style>
      .cls-1 {
        fill: #254085;
        stroke-width: 0px;
      }
    </style>
  </defs>
  <g id="Layer_1-2" data-name="Layer 1">
    <g>
      <path class="cls-1" d="m215.31,349.71c-82.56,0-137.59-58.26-137.59-139.21s55.03-139.25,137.59-139.25c62.34,0,109.29,33.19,128.71,84.18h77.72C400.71,63.14,321.37,0,215.31,0,89.02,0,0,89.06,0,210.5s89.02,210.47,215.31,210.47c106.06,0,185.39-63.14,206.43-155.44h-77.72c-19.42,50.99-66.37,84.18-128.71,84.18Z"/>
      <path class="cls-1" d="m488.46,238.85h395.82v-28.38C884.28,89.06,796.87,0,670.59,0s-215.35,89.06-215.35,210.47,89.06,210.47,215.35,210.47c93.1,0,165.94-47.76,196.7-122.21h-84.99c-23.46,34.8-59.91,50.99-111.71,50.99-56.88,0-102.95-26.5-124.1-75.03l-59.53-29.49c-3.19-1.58-2.04-6.34,1.5-6.34Zm182.12-167.63c64.76,0,117.37,34.84,132.75,98.79h-264.69c15.38-63.14,65.57-98.79,131.94-98.79Z"/>
      <path class="cls-1" d="m1095.02,174.05c-49.38-6.46-91.45-10.5-91.45-48.57,0-31.57,29.15-55.84,80.14-55.84s76.91,22.65,79.33,53.42h76.06c-1.61-68.8-60.68-123.06-156.21-123.06s-157.05,53.45-157.05,131.98c0,91.45,84.18,104.41,153.78,113.33,50.22,6.46,92.29,11.31,92.29,49.38,0,31.57-29.96,56.64-88.22,56.64s-86.64-23.46-88.26-56.64h-77.72c2.42,72.83,65.57,126.29,165.97,126.29s165.93-52.61,165.93-133.59c0-91.45-84.99-104.41-154.63-113.33Z"/>
      <path class="cls-1" d="m1618.55,10.54v204.81c0,84.98-49.38,130.32-120.63,130.32s-120.6-43.72-120.6-130.32V10.54h-76.91v204.81c0,140.05,84.99,202.39,184.55,202.39,59.91,0,108.48-27.53,133.59-76.91l13.69-25.04c1.19-2.19,4.54-.92,3.96,1.5l-17.65,74.03v6.96c0,90.68-47.76,126.29-122.25,126.29-57.45,0-97.14-21.03-115.75-66.37h-76.91c23.5,90.68,100.37,133.59,192.66,133.59,110.9,0,199.16-55.87,199.16-195.12V10.54h-76.91Z"/>
      <path class="cls-1" d="m2092.36,10.54v208.85c0,86.64-47.76,130.33-120.64,130.33s-120.6-43.68-120.6-130.33V10.54h-76.91v208.85c0,133.59,79.33,201.58,197.51,201.58s197.55-68.83,197.55-201.58V10.54h-76.91Z"/>
      <path class="cls-1" d="m2683.73,0c-62.34,0-113.33,27.53-140.86,79.33-27.53-51.8-79.33-79.33-140.86-79.33-93.91,0-165.13,56.68-165.13,178.93v231.5h76.87v-231.5c0-74.49,39.69-107.68,95.56-107.68s95.48,34.8,95.48,107.68v231.5h76.91v-231.5c0-72.87,40.49-107.68,94.72-107.68s95.52,33.19,95.52,107.68v231.5h76.91v-231.5c0-122.25-71.22-178.93-165.13-178.93Z"/>
    </g>
  </g>
</svg>