<?xml version="1.0" encoding="UTF-8"?>
<svg id="Layer_2" data-name="Layer 2" xmlns="http://www.w3.org/2000/svg" viewBox="0 0 2959.85 345.59">
  <defs>
    <style>
      .cls-1 {
        fill: #fff;
        stroke-width: 0px;
      }
    </style>
  </defs>
  <g id="Layer_1-2" data-name="Layer 1">
    <g>
      <path class="cls-1" d="m101.64,231.32c-38.98,0-64.95-27.5-64.95-65.72s25.98-65.73,64.95-65.73c29.43,0,51.59,15.67,60.76,39.74h36.69c-9.93-43.57-47.38-73.38-97.45-73.38C42.03,66.23,0,108.27,0,165.6s42.03,99.36,101.64,99.36c50.07,0,87.52-29.81,97.45-73.38h-36.69c-9.17,24.07-31.33,39.74-60.76,39.74Z"/>
      <path class="cls-1" d="m230.59,178.98h186.86v-13.4c0-57.31-41.26-99.36-100.88-99.36s-101.66,42.04-101.66,99.36,42.04,99.36,101.66,99.36c43.95,0,78.33-22.55,92.86-57.69h-40.12c-11.07,16.43-28.28,24.07-52.74,24.07-26.85,0-48.6-12.51-58.58-35.42l-28.1-13.92c-1.51-.74-.96-3,.71-3Zm85.98-79.13c30.57,0,55.41,16.45,62.67,46.64h-124.95c7.26-29.81,30.95-46.64,62.29-46.64Z"/>
      <path class="cls-1" d="m516.93,148.39c-23.31-3.05-43.17-4.96-43.17-22.93,0-14.9,13.76-26.36,37.83-26.36s36.31,10.69,37.45,25.22h35.91c-.76-32.48-28.65-58.09-73.74-58.09s-74.14,25.23-74.14,62.3c0,43.17,39.74,49.29,72.6,53.5,23.71,3.05,43.57,5.34,43.57,23.31,0,14.9-14.14,26.74-41.64,26.74s-40.9-11.07-41.66-26.74h-36.69c1.14,34.38,30.95,59.62,78.35,59.62s78.33-24.83,78.33-63.07c0-43.17-40.12-49.29-73-53.5Z"/>
      <path class="cls-1" d="m764.07,71.2v96.69c0,40.12-23.31,61.52-56.95,61.52s-56.93-20.64-56.93-61.52v-96.69h-36.31v96.69c0,66.12,40.12,95.54,87.12,95.54,28.28,0,51.21-13,63.07-36.31l6.46-11.82c.56-1.03,2.14-.44,1.87.71l-8.33,34.95v3.29c0,42.81-22.55,59.62-57.71,59.62-27.12,0-45.86-9.93-54.64-31.33h-36.31c11.09,42.81,47.38,63.07,90.95,63.07,52.35,0,94.02-26.38,94.02-92.11V71.2h-36.31Z"/>
      <path class="cls-1" d="m987.74,71.2v98.59c0,40.9-22.55,61.52-56.95,61.52s-56.93-20.62-56.93-61.52v-98.59h-36.31v98.59c0,63.07,37.45,95.16,93.24,95.16s93.26-32.49,93.26-95.16v-98.59h-36.31Z"/>
      <path class="cls-1" d="m1266.91,66.23c-29.43,0-53.5,13-66.5,37.45-13-24.45-37.45-37.45-66.5-37.45-44.33,0-77.95,26.76-77.95,84.47v109.29h36.29v-109.29c0-35.16,18.73-50.83,45.11-50.83s45.08,16.43,45.08,50.83v109.29h36.31v-109.29c0-34.4,19.12-50.83,44.71-50.83s45.09,15.67,45.09,50.83v109.29h36.31v-109.29c0-57.71-33.62-84.47-77.95-84.47Z"/>
      <path class="cls-1" d="m1663.15,131.2c-17.23,0-29.15-12.25-29.15-28.96s11.93-28.96,29.15-28.96c12.89,0,22.93,6.99,27.05,17.55h8.04c-4.45-14.69-17.75-24.53-35.09-24.53-21.55,0-36.76,15.23-36.76,35.93s15.21,35.94,36.76,35.94c17.34,0,30.64-9.84,35.09-24.53h-8.04c-4.12,10.57-14.16,17.54-27.05,17.54Z"/>
      <path class="cls-1" d="m1734.98,83.24c-9.1,0-16.07,4.01-19.77,11.51v-32.97h-7.08v75.03h7.08v-27.27c0-12.67,7.52-19.75,18.7-19.75s18.72,6.86,18.72,19.75v27.27h7.08v-27.27c0-17.86-10.78-26.31-24.73-26.31Z"/>
      <path class="cls-1" d="m1795.82,83.24c-16.48,0-28.1,11.51-28.1,27.79s12.36,27.16,27.05,27.16c10.15,0,18.81-4.97,22.51-14.27v12.89h6.55v-25.78c0-16.48-11.51-27.79-28.01-27.79Zm0,48.4c-12.45,0-20.91-8.88-20.91-20.93s8.46-20.91,20.91-20.91,20.93,8.88,20.93,20.91-8.46,20.93-20.93,20.93Z"/>
      <path class="cls-1" d="m1859.83,83.24c-16.57,0-28.21,11.62-28.21,27.68s11.73,27.27,27.05,27.27c9.95,0,18.08-4.65,21.98-12.58v33.49h7.08v-48.07c0-16.81-11.73-27.79-27.9-27.79Zm-.09,48.4c-12.47,0-20.93-8.88-20.93-20.93s8.46-20.91,20.93-20.91,20.91,8.88,20.91,20.91-8.35,20.93-20.91,20.93Z"/>
      <path class="cls-1" d="m1941.99,84.6v27.27c0,12.8-7.39,19.77-18.7,19.77s-18.7-6.97-18.7-19.77v-27.27h-7.1v27.27c0,17.34,10.37,26.32,25.8,26.32s25.78-8.99,25.78-26.32v-27.27h-7.08Z"/>
      <path class="cls-1" d="m2013.08,110.7c0-15.85-11.4-27.47-27.9-27.47s-28.1,11.62-28.1,27.47,11.62,27.48,28.1,27.48c12.16,0,21.68-6.35,25.69-15.96h-7.72c-3.38,6.01-9.73,9.4-17.97,9.4-11.73,0-19.86-7.72-20.8-18.61h48.71v-2.32Zm-48.51-4.01c1.6-10.26,9.73-16.9,20.6-16.9s18.83,6.34,20.51,16.9h-41.12Z"/>
      <path class="cls-1" d="m2108.17,83.24c-8.57,0-15.54,4.01-18.81,11.73-3.39-7.72-10.37-11.73-18.81-11.73-12.05,0-21.15,7.5-21.15,23.04v30.54h7.08v-30.54c0-11.09,6.14-16.48,14.6-16.48s14.8,5.59,14.8,16.48v30.54h7.06v-30.54c0-10.89,6.24-16.48,14.7-16.48s14.58,5.39,14.58,16.48v30.54h7.08v-30.54c0-15.54-9.09-23.04-21.13-23.04Z"/>
      <path class="cls-1" d="m2140.96,84.6v52.21h7.08v-52.21h-7.08Zm3.49-20.91c-3.05,0-5.37,2.32-5.37,5.39s2.32,5.37,5.37,5.37,5.39-2.32,5.39-5.37-2.32-5.39-5.39-5.39Z"/>
      <path class="cls-1" d="m2184.98,83.24c-15.41,0-25.78,8.97-25.78,26.31v27.27h7.08v-27.27c0-12.89,7.41-19.75,18.7-19.75s18.72,6.86,18.72,19.75v27.27h7.08v-27.27c0-17.34-10.37-26.31-25.8-26.31Z"/>
      <path class="cls-1" d="m2265.18,84.6v27.27c0,12.8-7.39,19.77-18.7,19.77s-18.7-6.97-18.7-19.77v-27.27h-7.08v27.27c0,17.34,10.35,26.32,25.78,26.32s25.8-8.99,25.8-26.32v-27.27h-7.1Z"/>
      <path class="cls-1" d="m2316.74,116.4v1.16c0,9.62-5.39,14.07-13.42,14.07s-13.43-4.56-13.43-14.07v-26.52h30.75v-6.45h-30.75v-18.48h-7.08v51.45c0,13.74,8.35,20.62,20.51,20.62s20.28-6.88,20.28-20.62v-1.16h-6.86Z"/>
      <path class="cls-1" d="m2385.61,110.7c0-15.85-11.4-27.47-27.88-27.47s-28.12,11.62-28.12,27.47,11.64,27.48,28.12,27.48c12.14,0,21.66-6.35,25.67-15.96h-7.72c-3.38,6.01-9.71,9.4-17.95,9.4-11.75,0-19.88-7.72-20.82-18.61h48.71v-2.32Zm-48.51-4.01c1.6-10.26,9.73-16.9,20.62-16.9s18.81,6.34,20.5,16.9h-41.12Z"/>
      <path class="cls-1" d="m2447.93,131.63c-12.45,0-20.91-8.88-20.91-20.93s8.46-20.91,20.91-20.91c9.51,0,16.81,5.06,19.66,12.89h7.19c-3.07-11.64-13.31-19.44-26.85-19.44-16.47,0-28.1,11.62-28.1,27.47s11.64,27.48,28.1,27.48c13.54,0,23.78-7.82,26.85-19.44h-7.19c-2.85,7.81-10.15,12.89-19.66,12.89Z"/>
      <path class="cls-1" d="m2508.48,83.24c-16.48,0-28.12,11.62-28.12,27.47s11.64,27.48,28.12,27.48,28.1-11.64,28.1-27.48-11.62-27.47-28.1-27.47Zm0,48.4c-12.47,0-20.93-8.88-20.93-20.93s8.46-20.91,20.93-20.91,20.91,8.88,20.91,20.91-8.46,20.93-20.91,20.93Z"/>
      <path class="cls-1" d="m2603.53,83.24c-8.57,0-15.54,4.01-18.81,11.73-3.39-7.72-10.37-11.73-18.81-11.73-12.05,0-21.15,7.5-21.15,23.04v30.54h7.08v-30.54c0-11.09,6.14-16.48,14.6-16.48s14.8,5.59,14.8,16.48v30.54h7.06v-30.54c0-10.89,6.24-16.48,14.7-16.48s14.58,5.39,14.58,16.48v30.54h7.08v-30.54c0-15.54-9.09-23.04-21.13-23.04Z"/>
      <path class="cls-1" d="m2663.09,83.24c-16.16,0-27.9,10.98-27.9,27.79v48.07h7.08v-33.49c3.92,7.93,12.05,12.58,21.98,12.58,15.32,0,27.05-11.2,27.05-27.27s-11.62-27.68-28.21-27.68Zm.11,48.4c-12.58,0-20.93-8.88-20.93-20.93s8.35-20.91,20.93-20.91,20.93,8.88,20.93,20.91-8.46,20.93-20.93,20.93Z"/>
      <path class="cls-1" d="m2733.46,116.4v1.16c0,9.62-5.39,14.07-13.42,14.07s-13.42-4.56-13.42-14.07v-26.52h30.75v-6.45h-30.75v-18.48h-7.08v51.45c0,13.74,8.35,20.62,20.5,20.62s20.3-6.88,20.3-20.62v-1.16h-6.88Z"/>
      <path class="cls-1" d="m2802.35,110.7c0-15.85-11.42-27.47-27.9-27.47s-28.1,11.62-28.1,27.47,11.62,27.48,28.1,27.48c12.16,0,21.66-6.35,25.69-15.96h-7.72c-3.39,6.01-9.73,9.4-17.97,9.4-11.73,0-19.86-7.72-20.82-18.61h48.72v-2.32Zm-48.51-4.01c1.58-10.26,9.71-16.9,20.6-16.9s18.81,6.34,20.5,16.9h-41.1Z"/>
      <path class="cls-1" d="m2814.69,127.4c-3.07,0-5.39,2.32-5.39,5.39,0,2.43,1.49,4.54,3.7,5.06l-3.49,12.05h4.23l5.59-14.16c.33-.85.64-2.12.64-2.96,0-3.07-2.32-5.39-5.28-5.39Z"/>
      <path class="cls-1" d="m1663.15,257.98c-17.23,0-29.15-12.25-29.15-28.96s11.93-28.95,29.15-28.95c12.89,0,22.93,6.97,27.05,17.54h8.04c-4.45-14.69-17.75-24.51-35.09-24.51-21.55,0-36.76,15.21-36.76,35.93s15.21,35.93,36.76,35.93c17.34,0,30.64-9.82,35.09-24.51h-8.04c-4.12,10.57-14.16,17.54-27.05,17.54Z"/>
      <path class="cls-1" d="m1760.76,237.49c0-15.85-11.4-27.48-27.9-27.48s-28.1,11.64-28.1,27.48,11.62,27.47,28.1,27.47c12.16,0,21.68-6.34,25.69-15.96h-7.72c-3.38,6.03-9.73,9.4-17.97,9.4-11.73,0-19.86-7.72-20.8-18.59h48.71v-2.32Zm-48.51-4.01c1.6-10.26,9.73-16.92,20.6-16.92s18.83,6.34,20.51,16.92h-41.12Z"/>
      <path class="cls-1" d="m1788.68,234c-7.39-.96-14.16-1.69-14.16-8.15,0-5.37,4.76-9.4,12.8-9.4s12.78,4.03,13.11,9.2h6.97c-.22-8.88-7.72-15.65-19.97-15.65s-19.99,6.66-19.99,16.48c0,11.53,10.67,13,20.08,14.16,7.52.96,14.16,1.71,14.16,8.04,0,5.59-5.06,9.82-14.16,9.82s-13.83-4.01-14.14-9.62h-7.19c.31,9.2,8.44,16.07,21.33,16.07s21.35-6.86,21.35-16.79c0-11.84-12.04-13.11-20.19-14.16Z"/>
      <path class="cls-1" d="m1861.32,211.38v26.94c0,12.8-7.52,19.77-18.72,19.77s-18.7-6.88-18.7-19.77v-26.94h-7.08v26.94c0,17.86,10.78,26.32,24.73,26.32,9.09,0,16.07-4.01,19.77-11.53v8.77c0,13.63-7.82,19.13-19.03,19.13-8.66,0-15.1-3.49-17.86-10.57h-7.08c3.27,11.31,13.11,16.79,24.94,16.79,14.58,0,26.11-7.39,26.11-25.56v-50.3h-7.08Z"/>
      <path class="cls-1" d="m1924.42,211.38v27.27c0,12.78-7.41,19.75-18.72,19.75s-18.7-6.97-18.7-19.75v-27.27h-7.08v27.27c0,17.32,10.37,26.3,25.78,26.3s25.8-8.99,25.8-26.3v-27.27h-7.08Z"/>
      <path class="cls-1" d="m2000.32,210c-8.57,0-15.54,4.01-18.81,11.73-3.39-7.72-10.37-11.73-18.83-11.73-12.04,0-21.13,7.52-21.13,23.04v30.55h7.08v-30.55c0-11.09,6.14-16.48,14.58-16.48s14.8,5.61,14.8,16.48v30.55h7.08v-30.55c0-10.87,6.24-16.48,14.69-16.48s14.6,5.39,14.6,16.48v30.55h7.08v-30.55c0-15.52-9.1-23.04-21.13-23.04Z"/>
      <path class="cls-1" d="m2061.9,188.56v75.03h7.08v-75.03h-7.08Z"/>
      <path class="cls-1" d="m2134.31,237.49c0-15.85-11.42-27.48-27.9-27.48s-28.1,11.64-28.1,27.48,11.62,27.47,28.1,27.47c12.16,0,21.68-6.34,25.69-15.96h-7.72c-3.38,6.03-9.73,9.4-17.97,9.4-11.73,0-19.86-7.72-20.8-18.59h48.71v-2.32Zm-48.51-4.01c1.6-10.26,9.73-16.92,20.6-16.92s18.81,6.34,20.51,16.92h-41.12Z"/>
      <path class="cls-1" d="m2162.23,234c-7.39-.96-14.16-1.69-14.16-8.15,0-5.37,4.77-9.4,12.8-9.4s12.78,4.03,13.09,9.2h6.99c-.22-8.88-7.72-15.65-19.97-15.65s-19.97,6.66-19.97,16.48c0,11.53,10.66,13,20.08,14.16,7.5.96,14.14,1.71,14.14,8.04,0,5.59-5.06,9.82-14.14,9.82s-13.85-4.01-14.18-9.62h-7.17c.31,9.2,8.44,16.07,21.35,16.07s21.33-6.86,21.33-16.79c0-11.84-12.04-13.11-20.19-14.16Z"/>
      <path class="cls-1" d="m2245.07,258.4c-12.47,0-20.93-8.88-20.93-20.91s8.46-20.93,20.93-20.93c9.51,0,16.79,5.08,19.66,12.89h7.17c-3.05-11.62-13.31-19.44-26.83-19.44-16.48,0-28.12,11.64-28.12,27.48s11.64,27.47,28.12,27.47c13.52,0,23.78-7.82,26.83-19.44h-7.17c-2.87,7.82-10.15,12.89-19.66,12.89Z"/>
      <path class="cls-1" d="m2305.59,210c-16.48,0-28.1,11.64-28.1,27.48s11.62,27.47,28.1,27.47,28.1-11.62,28.1-27.47-11.62-27.48-28.1-27.48Zm0,48.4c-12.47,0-20.93-8.88-20.93-20.91s8.46-20.93,20.93-20.93,20.91,8.88,20.91,20.93-8.44,20.91-20.91,20.91Z"/>
      <path class="cls-1" d="m2400.64,210c-8.55,0-15.52,4.01-18.81,11.73-3.38-7.72-10.35-11.73-18.81-11.73-12.04,0-21.13,7.52-21.13,23.04v30.55h7.08v-30.55c0-11.09,6.14-16.48,14.58-16.48s14.8,5.61,14.8,16.48v30.55h7.08v-30.55c0-10.87,6.24-16.48,14.69-16.48s14.6,5.39,14.6,16.48v30.55h7.08v-30.55c0-15.52-9.09-23.04-21.15-23.04Z"/>
      <path class="cls-1" d="m2460.22,210c-16.18,0-27.9,11-27.9,27.79v48.09h7.08v-33.51c3.9,7.93,12.04,12.58,21.98,12.58,15.32,0,27.05-11.2,27.05-27.27s-11.64-27.68-28.21-27.68Zm.09,48.4c-12.56,0-20.91-8.88-20.91-20.91s8.35-20.93,20.91-20.93,20.93,8.88,20.93,20.93-8.46,20.91-20.93,20.91Z"/>
      <path class="cls-1" d="m2530.59,243.19v1.16c0,9.62-5.39,14.05-13.43,14.05s-13.42-4.54-13.42-14.05v-26.52h30.75v-6.44h-30.75v-18.5h-7.08v51.47c0,13.74,8.35,20.6,20.5,20.6s20.3-6.86,20.3-20.6v-1.16h-6.86Z"/>
      <path class="cls-1" d="m2599.46,237.49c0-15.85-11.4-27.48-27.9-27.48s-28.1,11.64-28.1,27.48,11.62,27.47,28.1,27.47c12.16,0,21.68-6.34,25.69-15.96h-7.72c-3.38,6.03-9.73,9.4-17.97,9.4-11.73,0-19.86-7.72-20.8-18.59h48.71v-2.32Zm-48.51-4.01c1.6-10.26,9.73-16.92,20.6-16.92s18.83,6.34,20.51,16.92h-41.12Z"/>
      <path class="cls-1" d="m2669.72,243.19v1.16c0,9.62-5.39,14.05-13.42,14.05s-13.43-4.54-13.43-14.05v-26.52h30.75v-6.44h-30.75v-18.5h-7.08v51.47c0,13.74,8.35,20.6,20.51,20.6s20.28-6.86,20.28-20.6v-1.16h-6.86Z"/>
      <path class="cls-1" d="m2710.71,210c-16.48,0-28.12,11.64-28.12,27.48s11.64,27.47,28.12,27.47,28.1-11.62,28.1-27.47-11.62-27.48-28.1-27.48Zm0,48.4c-12.47,0-20.93-8.88-20.93-20.91s8.46-20.93,20.93-20.93,20.91,8.88,20.91,20.93-8.44,20.91-20.91,20.91Z"/>
      <path class="cls-1" d="m2791.31,211.38v27.27c0,12.78-7.41,19.75-18.72,19.75s-18.7-6.97-18.7-19.75v-27.27h-7.08v27.27c0,17.32,10.37,26.3,25.78,26.3s25.8-8.99,25.8-26.3v-27.27h-7.08Z"/>
      <path class="cls-1" d="m2842.85,243.19v1.16c0,9.62-5.39,14.05-13.42,14.05s-13.43-4.54-13.43-14.05v-26.52h30.75v-6.44h-30.75v-18.5h-7.06v51.47c0,13.74,8.33,20.6,20.5,20.6s20.3-6.86,20.3-20.6v-1.16h-6.88Z"/>
      <path class="cls-1" d="m2911.74,237.49c0-15.85-11.42-27.48-27.9-27.48s-28.1,11.64-28.1,27.48,11.62,27.47,28.1,27.47c12.16,0,21.66-6.34,25.69-15.96h-7.72c-3.39,6.03-9.73,9.4-17.97,9.4-11.73,0-19.86-7.72-20.82-18.59h48.72v-2.32Zm-48.51-4.01c1.58-10.26,9.73-16.92,20.6-16.92s18.81,6.34,20.5,16.92h-41.1Z"/>
      <path class="cls-1" d="m2939.66,234c-7.39-.96-14.16-1.69-14.16-8.15,0-5.37,4.76-9.4,12.78-9.4s12.8,4.03,13.11,9.2h6.97c-.2-8.88-7.72-15.65-19.97-15.65s-19.97,6.66-19.97,16.48c0,11.53,10.67,13,20.08,14.16,7.5.96,14.16,1.71,14.16,8.04,0,5.59-5.06,9.82-14.16,9.82s-13.83-4.01-14.16-9.62h-7.19c.33,9.2,8.46,16.07,21.35,16.07s21.35-6.86,21.35-16.79c0-11.84-12.05-13.11-20.19-14.16Z"/>
      <rect class="cls-1" x="1481" y="0" width="9.24" height="332.07" transform="translate(2971.25 332.07) rotate(-180)"/>
    </g>
  </g>
</svg>