<?xml version="1.0" encoding="UTF-8"?>
<svg id="Layer_2" data-name="Layer 2" xmlns="http://www.w3.org/2000/svg" viewBox="0 0 1329.34 1540.02">
  <defs>
    <style>
      .cls-1 {
        fill: #fff;
        stroke-width: 0px;
      }
    </style>
  </defs>
  <g id="Layer_1-2" data-name="Layer 1">
    <g>
      <circle class="cls-1" cx="691.47" cy="770.02" r="302.82"/>
      <path class="cls-1" d="m233.42,976.85c-83.49-184.98-49.26-410.13,102.74-562.14,196.23-196.23,514.39-196.23,710.62,0,32.18,32.18,59.04,67.65,80.67,105.31l179.69-112.69c30.24-18.97,29.43-63.3-1.48-81.15L783.32,24.61c-56.83-32.81-126.86-32.81-183.69,0L91.85,317.78C35.01,350.59,0,411.23,0,476.86v617.1c0,24.45,27.97,38.36,47.47,23.61l185.95-140.72Z"/>
      <path class="cls-1" d="m1193.72,1255.95l-158.22-119.71c-96.59,90.82-220.29,136.27-344.03,136.27s-247.44-45.45-344.03-136.27l-158.22,119.71c-8.01,6.07-7.27,18.33,1.44,23.36l408.98,236.11c28.42,16.42,60.13,24.6,91.83,24.6s63.41-8.18,91.83-24.6l408.98-236.11c8.71-5.03,9.45-17.29,1.44-23.36Z"/>
    </g>
  </g>
</svg>