<?xml version="1.0" encoding="UTF-8"?>
<svg id="Layer_2" data-name="Layer 2" xmlns="http://www.w3.org/2000/svg" viewBox="0 0 2937.26 723.77">
  <defs>
    <style>
      .cls-1 {
        stroke-width: 0px;
      }
    </style>
  </defs>
  <g id="Layer_1-2" data-name="Layer 1">
    <g>
      <g>
        <circle class="cls-1" cx="324.97" cy="361.89" r="142.32"/>
        <path class="cls-1" d="m109.7,459.1c-39.24-86.94-23.15-192.75,48.29-264.19,92.22-92.22,241.75-92.22,333.98,0,15.12,15.12,27.75,31.79,37.91,49.49l84.45-52.96c14.21-8.91,13.83-29.75-.7-38.14L368.14,11.57c-26.71-15.42-59.62-15.42-86.33,0L43.17,149.35C16.45,164.77,0,193.27,0,224.11v290.02c0,11.49,13.14,18.03,22.31,11.09l87.39-66.13Z"/>
        <path class="cls-1" d="m561.02,590.27l-74.36-56.26c-45.39,42.69-103.53,64.04-161.69,64.04s-116.29-21.36-161.69-64.04l-74.36,56.26c-3.76,2.85-3.42,8.62.68,10.98l192.21,110.97c13.36,7.72,28.26,11.56,43.16,11.56s29.8-3.84,43.16-11.56l192.21-110.97c4.1-2.36,4.44-8.13.68-10.98Z"/>
      </g>
      <path class="cls-1" d="m916.98,468.69c-63.34,0-105.55-44.69-105.55-106.79s42.22-106.82,105.55-106.82c47.82,0,83.84,25.46,98.74,64.58h59.62c-16.14-70.8-77-119.24-158.36-119.24-96.88,0-165.17,68.32-165.17,161.48s68.29,161.46,165.17,161.46c81.36,0,142.22-48.44,158.36-119.24h-59.62c-14.9,39.12-50.92,64.58-98.74,64.58Z"/>
      <path class="cls-1" d="m1126.53,383.64h303.65v-21.77c0-93.13-67.05-161.46-163.93-161.46s-165.2,68.32-165.2,161.46,68.32,161.46,165.2,161.46c71.42,0,127.29-36.64,150.89-93.75h-65.2c-17.99,26.7-45.96,39.12-85.7,39.12-43.63,0-78.97-20.33-95.2-57.56l-45.67-22.63c-2.45-1.21-1.56-4.87,1.15-4.87Zm139.71-128.59c49.68,0,90.04,26.73,101.84,75.79h-203.05c11.8-48.44,50.3-75.79,101.22-75.79Z"/>
      <path class="cls-1" d="m1591.84,333.93c-37.88-4.96-70.15-8.05-70.15-37.26,0-24.22,22.36-42.83,61.48-42.83s59,17.38,60.86,40.98h58.35c-1.24-52.78-46.55-94.4-119.83-94.4s-120.48,41.01-120.48,101.24c0,70.15,64.58,80.09,117.97,86.94,38.53,4.96,70.8,8.67,70.8,37.88,0,24.22-22.98,43.45-67.67,43.45s-66.46-18-67.7-43.45h-59.62c1.86,55.87,50.3,96.88,127.32,96.88s127.29-40.36,127.29-102.48c0-70.15-65.2-80.09-118.62-86.94Z"/>
      <path class="cls-1" d="m1993.45,208.5v157.12c0,65.19-37.88,99.98-92.54,99.98s-92.51-33.54-92.51-99.98v-157.12h-59v157.12c0,107.44,65.2,155.26,141.57,155.26,45.96,0,83.22-21.12,102.48-59l10.5-19.21c.91-1.68,3.48-.71,3.04,1.15l-13.54,56.79v5.34c0,69.56-36.64,96.88-93.78,96.88-44.07,0-74.52-16.14-88.8-50.92h-59c18.02,69.56,77,102.48,147.8,102.48,85.08,0,152.78-42.86,152.78-149.68V208.5h-59Z"/>
      <path class="cls-1" d="m2356.93,208.5v160.22c0,66.47-36.64,99.98-92.54,99.98s-92.51-33.51-92.51-99.98v-160.22h-59v160.22c0,102.49,60.86,154.64,151.51,154.64s151.54-52.81,151.54-154.64v-160.22h-59Z"/>
      <path class="cls-1" d="m2810.59,200.42c-47.82,0-86.94,21.12-108.06,60.86-21.12-39.74-60.86-60.86-108.06-60.86-72.04,0-126.68,43.48-126.68,137.26v177.59h58.97v-177.59c0-57.14,30.44-82.6,73.31-82.6s73.25,26.7,73.25,82.6v177.59h59v-177.59c0-55.9,31.06-82.6,72.66-82.6s73.28,25.46,73.28,82.6v177.59h59v-177.59c0-93.78-54.63-137.26-126.67-137.26Z"/>
    </g>
  </g>
</svg>