<?xml version="1.0" encoding="UTF-8"?>
<svg id="Layer_2" data-name="Layer 2" xmlns="http://www.w3.org/2000/svg" viewBox="0 0 2982.44 388.12">
  <defs>
    <style>
      .cls-1 {
        fill: #658dca;
      }

      .cls-1, .cls-2 {
        stroke-width: 0px;
      }

      .cls-2 {
        fill: #fff;
      }
    </style>
  </defs>
  <g id="Layer_1-2" data-name="Layer 1">
    <g>
      <g>
        <circle class="cls-1" cx="174.27" cy="194.06" r="76.32"/>
        <path class="cls-1" d="m58.83,246.19c-21.04-46.62-12.42-103.36,25.89-141.67,49.46-49.46,129.64-49.46,179.09,0,8.11,8.11,14.88,17.05,20.33,26.54l45.29-28.4c7.62-4.78,7.42-15.95-.37-20.45L197.41,6.2c-14.32-8.27-31.97-8.27-46.29,0L23.15,80.09C8.82,88.36,0,103.64,0,120.18v155.52c0,6.16,7.05,9.67,11.96,5.95l46.86-35.46Z"/>
        <path class="cls-1" d="m300.84,316.53l-39.88-30.17c-24.34,22.89-55.52,34.34-86.7,34.34s-62.36-11.45-86.7-34.34l-39.88,30.17c-2.02,1.53-1.83,4.62.36,5.89l103.07,59.51c7.16,4.14,15.15,6.2,23.14,6.2s15.98-2.06,23.14-6.2l103.07-59.51c2.2-1.27,2.38-4.36.36-5.89Z"/>
      </g>
      <path class="cls-2" d="m491.73,251.34c-33.96,0-56.6-23.97-56.6-57.27s22.64-57.28,56.6-57.28c25.64,0,44.96,13.65,52.95,34.63h31.97c-8.65-37.97-41.29-63.94-84.92-63.94-51.95,0-88.57,36.64-88.57,86.6s36.62,86.58,88.57,86.58c43.63,0,76.27-25.98,84.92-63.94h-31.97c-7.99,20.98-27.3,34.63-52.95,34.63Z"/>
      <path class="cls-2" d="m604.1,205.73h162.83v-11.67c0-49.94-35.96-86.58-87.91-86.58s-88.59,36.64-88.59,86.58,36.64,86.58,88.59,86.58c38.3,0,68.26-19.65,80.92-50.27h-34.96c-9.65,14.32-24.65,20.98-45.96,20.98-23.4,0-42.35-10.9-51.05-30.86l-24.49-12.13c-1.31-.65-.84-2.61.62-2.61Zm74.92-68.96c26.64,0,48.28,14.33,54.61,40.64h-108.89c6.33-25.98,26.97-40.64,54.28-40.64Z"/>
      <path class="cls-2" d="m853.62,179.07c-20.31-2.66-37.62-4.32-37.62-19.98,0-12.99,11.99-22.97,32.97-22.97s31.64,9.32,32.64,21.97h31.29c-.66-28.3-24.96-50.62-64.26-50.62s-64.61,21.99-64.61,54.29c0,37.62,34.63,42.95,63.26,46.62,20.66,2.66,37.97,4.65,37.97,20.31,0,12.99-12.32,23.3-36.29,23.3s-35.64-9.65-36.31-23.3h-31.97c1,29.96,26.97,51.95,68.28,51.95s68.26-21.64,68.26-54.96c0-37.62-34.96-42.95-63.61-46.62Z"/>
      <path class="cls-2" d="m1068.99,111.81v84.26c0,34.96-20.31,53.61-49.63,53.61s-49.61-17.99-49.61-53.61v-84.26h-31.64v84.26c0,57.61,34.96,83.26,75.92,83.26,24.65,0,44.63-11.33,54.96-31.64l5.63-10.3c.49-.9,1.87-.38,1.63.62l-7.26,30.45v2.86c0,37.3-19.65,51.95-50.29,51.95-23.63,0-39.96-8.65-47.62-27.3h-31.64c9.67,37.3,41.29,54.96,79.26,54.96,45.62,0,81.93-22.99,81.93-80.27V111.81h-31.64Z"/>
      <path class="cls-2" d="m1263.9,111.81v85.92c0,35.64-19.65,53.61-49.63,53.61s-49.61-17.97-49.61-53.61v-85.92h-31.64v85.92c0,54.96,32.64,82.93,81.25,82.93s81.27-28.32,81.27-82.93v-85.92h-31.64Z"/>
      <path class="cls-2" d="m1507.17,107.47c-25.64,0-46.62,11.33-57.95,32.64-11.33-21.31-32.64-32.64-57.95-32.64-38.63,0-67.93,23.32-67.93,73.61v95.23h31.62v-95.23c0-30.64,16.33-44.29,39.31-44.29s39.28,14.32,39.28,44.29v95.23h31.64v-95.23c0-29.98,16.66-44.29,38.96-44.29s39.3,13.65,39.3,44.29v95.23h31.64v-95.23c0-50.29-29.3-73.61-67.93-73.61Z"/>
      <g>
        <path class="cls-1" d="m1852.46,164.09c-15.01,0-25.41-10.68-25.41-25.23s10.39-25.23,25.41-25.23c11.23,0,19.98,6.09,23.57,15.3h7.01c-3.88-12.8-15.47-21.37-30.58-21.37-18.78,0-32.03,13.27-32.03,31.31s13.26,31.32,32.03,31.32c15.11,0,26.7-8.57,30.58-21.37h-7.01c-3.59,9.21-12.34,15.28-23.57,15.28Z"/>
        <path class="cls-1" d="m1915.06,122.29c-7.93,0-14,3.5-17.23,10.03v-28.73h-6.17v65.38h6.17v-23.76c0-11.04,6.55-17.21,16.29-17.21s16.31,5.98,16.31,17.21v23.76h6.17v-23.76c0-15.57-9.4-22.92-21.55-22.92Z"/>
        <path class="cls-1" d="m1968.07,122.29c-14.36,0-24.49,10.03-24.49,24.22s10.77,23.67,23.57,23.67c8.84,0,16.39-4.33,19.62-12.43v11.23h5.71v-22.46c0-14.36-10.03-24.22-24.41-24.22Zm0,42.18c-10.85,0-18.22-7.74-18.22-18.24s7.37-18.22,18.22-18.22,18.24,7.74,18.24,18.22-7.37,18.24-18.24,18.24Z"/>
        <path class="cls-1" d="m2023.85,122.29c-14.44,0-24.58,10.12-24.58,24.12s10.22,23.76,23.57,23.76c8.67,0,15.76-4.05,19.16-10.96v29.19h6.17v-41.89c0-14.65-10.22-24.22-24.31-24.22Zm-.08,42.18c-10.87,0-18.24-7.74-18.24-18.24s7.37-18.22,18.24-18.22,18.22,7.74,18.22,18.22-7.28,18.24-18.22,18.24Z"/>
        <path class="cls-1" d="m2095.45,123.48v23.76c0,11.15-6.44,17.23-16.29,17.23s-16.29-6.07-16.29-17.23v-23.76h-6.19v23.76c0,15.11,9.03,22.94,22.48,22.94s22.46-7.83,22.46-22.94v-23.76h-6.17Z"/>
        <path class="cls-1" d="m2157.4,146.23c0-13.81-9.93-23.94-24.31-23.94s-24.49,10.12-24.49,23.94,10.12,23.95,24.49,23.95c10.6,0,18.89-5.54,22.38-13.91h-6.72c-2.94,5.24-8.48,8.19-15.66,8.19-10.22,0-17.31-6.72-18.13-16.22h42.44v-2.02Zm-42.27-3.5c1.39-8.94,8.48-14.73,17.96-14.73s16.4,5.52,17.88,14.73h-35.83Z"/>
        <path class="cls-1" d="m2240.26,122.29c-7.47,0-13.54,3.5-16.39,10.22-2.96-6.72-9.03-10.22-16.39-10.22-10.5,0-18.43,6.53-18.43,20.07v26.61h6.17v-26.61c0-9.67,5.35-14.36,12.72-14.36s12.89,4.87,12.89,14.36v26.61h6.15v-26.61c0-9.49,5.44-14.36,12.81-14.36s12.7,4.7,12.7,14.36v26.61h6.17v-26.61c0-13.54-7.93-20.07-18.41-20.07Z"/>
        <path class="cls-1" d="m2268.83,123.48v45.5h6.17v-45.5h-6.17Zm3.04-18.22c-2.66,0-4.68,2.03-4.68,4.7s2.02,4.68,4.68,4.68,4.7-2.02,4.7-4.68-2.02-4.7-4.7-4.7Z"/>
        <path class="cls-1" d="m2307.2,122.29c-13.43,0-22.46,7.81-22.46,22.92v23.76h6.17v-23.76c0-11.23,6.45-17.21,16.29-17.21s16.31,5.98,16.31,17.21v23.76h6.17v-23.76c0-15.11-9.03-22.92-22.48-22.92Z"/>
        <path class="cls-1" d="m2377.09,123.48v23.76c0,11.15-6.44,17.23-16.29,17.23s-16.29-6.07-16.29-17.23v-23.76h-6.17v23.76c0,15.11,9.02,22.94,22.46,22.94s22.48-7.83,22.48-22.94v-23.76h-6.19Z"/>
        <path class="cls-1" d="m2422.02,151.2v1.01c0,8.38-4.7,12.26-11.69,12.26s-11.71-3.97-11.71-12.26v-23.11h26.8v-5.62h-26.8v-16.1h-6.17v44.83c0,11.98,7.28,17.97,17.88,17.97s17.67-6,17.67-17.97v-1.01h-5.98Z"/>
        <path class="cls-1" d="m2482.03,146.23c0-13.81-9.93-23.94-24.3-23.94s-24.5,10.12-24.5,23.94,10.14,23.95,24.5,23.95c10.58,0,18.87-5.54,22.37-13.91h-6.72c-2.94,5.24-8.46,8.19-15.65,8.19-10.24,0-17.32-6.72-18.14-16.22h42.44v-2.02Zm-42.27-3.5c1.39-8.94,8.48-14.73,17.97-14.73s16.39,5.52,17.86,14.73h-35.83Z"/>
        <path class="cls-1" d="m2536.34,164.47c-10.85,0-18.22-7.74-18.22-18.24s7.37-18.22,18.22-18.22c8.29,0,14.65,4.41,17.13,11.23h6.26c-2.67-10.14-11.6-16.94-23.4-16.94-14.35,0-24.49,10.12-24.49,23.94s10.14,23.95,24.49,23.95c11.8,0,20.72-6.82,23.4-16.94h-6.26c-2.48,6.8-8.84,11.23-17.13,11.23Z"/>
        <path class="cls-1" d="m2589.1,122.29c-14.36,0-24.5,10.12-24.5,23.94s10.14,23.95,24.5,23.95,24.49-10.14,24.49-23.95-10.12-23.94-24.49-23.94Zm0,42.18c-10.87,0-18.24-7.74-18.24-18.24s7.37-18.22,18.24-18.22,18.22,7.74,18.22,18.22-7.37,18.24-18.22,18.24Z"/>
        <path class="cls-1" d="m2671.93,122.29c-7.47,0-13.54,3.5-16.39,10.22-2.96-6.72-9.03-10.22-16.39-10.22-10.5,0-18.43,6.53-18.43,20.07v26.61h6.17v-26.61c0-9.67,5.35-14.36,12.72-14.36s12.89,4.87,12.89,14.36v26.61h6.15v-26.61c0-9.49,5.44-14.36,12.81-14.36s12.7,4.7,12.7,14.36v26.61h6.17v-26.61c0-13.54-7.93-20.07-18.41-20.07Z"/>
        <path class="cls-1" d="m2723.84,122.29c-14.08,0-24.31,9.57-24.31,24.22v41.89h6.17v-29.19c3.42,6.91,10.5,10.96,19.16,10.96,13.35,0,23.57-9.76,23.57-23.76s-10.12-24.12-24.58-24.12Zm.09,42.18c-10.96,0-18.24-7.74-18.24-18.24s7.28-18.22,18.24-18.22,18.24,7.74,18.24,18.22-7.37,18.24-18.24,18.24Z"/>
        <path class="cls-1" d="m2785.15,151.2v1.01c0,8.38-4.7,12.26-11.69,12.26s-11.69-3.97-11.69-12.26v-23.11h26.8v-5.62h-26.8v-16.1h-6.17v44.83c0,11.98,7.28,17.97,17.86,17.97s17.69-6,17.69-17.97v-1.01h-6Z"/>
        <path class="cls-1" d="m2845.19,146.23c0-13.81-9.95-23.94-24.31-23.94s-24.49,10.12-24.49,23.94,10.12,23.95,24.49,23.95c10.6,0,18.87-5.54,22.38-13.91h-6.72c-2.96,5.24-8.48,8.19-15.66,8.19-10.22,0-17.31-6.72-18.14-16.22h42.46v-2.02Zm-42.27-3.5c1.38-8.94,8.46-14.73,17.96-14.73s16.39,5.52,17.86,14.73h-35.82Z"/>
        <path class="cls-1" d="m2855.95,160.78c-2.67,0-4.7,2.03-4.7,4.7,0,2.12,1.3,3.95,3.23,4.41l-3.04,10.5h3.69l4.87-12.34c.28-.74.55-1.85.55-2.58,0-2.67-2.02-4.7-4.6-4.7Z"/>
        <path class="cls-1" d="m1852.46,274.57c-15.01,0-25.41-10.68-25.41-25.23s10.39-25.23,25.41-25.23c11.23,0,19.98,6.07,23.57,15.28h7.01c-3.88-12.8-15.47-21.36-30.58-21.36-18.78,0-32.03,13.26-32.03,31.31s13.26,31.31,32.03,31.31c15.11,0,26.7-8.56,30.58-21.36h-7.01c-3.59,9.21-12.34,15.28-23.57,15.28Z"/>
        <path class="cls-1" d="m1937.53,256.71c0-13.81-9.93-23.95-24.31-23.95s-24.49,10.14-24.49,23.95,10.12,23.93,24.49,23.93c10.6,0,18.89-5.52,22.38-13.91h-6.72c-2.94,5.25-8.48,8.19-15.66,8.19-10.22,0-17.31-6.72-18.13-16.2h42.44v-2.02Zm-42.27-3.5c1.39-8.94,8.48-14.74,17.96-14.74s16.4,5.52,17.88,14.74h-35.83Z"/>
        <path class="cls-1" d="m1961.86,253.68c-6.44-.84-12.34-1.47-12.34-7.1,0-4.68,4.14-8.19,11.15-8.19s11.14,3.51,11.42,8.02h6.07c-.19-7.74-6.72-13.64-17.4-13.64s-17.42,5.81-17.42,14.36c0,10.05,9.3,11.33,17.5,12.34,6.55.84,12.34,1.49,12.34,7.01,0,4.87-4.41,8.56-12.34,8.56s-12.05-3.5-12.32-8.38h-6.26c.27,8.02,7.36,14,18.59,14s18.6-5.98,18.6-14.63c0-10.31-10.49-11.42-17.59-12.34Z"/>
        <path class="cls-1" d="m2025.15,233.97v23.48c0,11.15-6.55,17.23-16.31,17.23s-16.29-6-16.29-17.23v-23.48h-6.17v23.48c0,15.57,9.4,22.94,21.55,22.94,7.93,0,14-3.5,17.23-10.05v7.64c0,11.88-6.82,16.67-16.58,16.67-7.55,0-13.16-3.04-15.57-9.21h-6.17c2.85,9.86,11.42,14.63,21.74,14.63,12.7,0,22.75-6.44,22.75-22.27v-43.84h-6.17Z"/>
        <path class="cls-1" d="m2080.14,233.97v23.76c0,11.14-6.45,17.21-16.31,17.21s-16.29-6.08-16.29-17.21v-23.76h-6.17v23.76c0,15.09,9.03,22.92,22.46,22.92s22.48-7.83,22.48-22.92v-23.76h-6.17Z"/>
        <path class="cls-1" d="m2146.28,232.76c-7.47,0-13.54,3.5-16.39,10.22-2.96-6.72-9.03-10.22-16.4-10.22-10.49,0-18.41,6.55-18.41,20.07v26.62h6.17v-26.62c0-9.67,5.35-14.36,12.7-14.36s12.89,4.89,12.89,14.36v26.62h6.17v-26.62c0-9.48,5.44-14.36,12.8-14.36s12.72,4.7,12.72,14.36v26.62h6.17v-26.62c0-13.53-7.93-20.07-18.41-20.07Z"/>
        <path class="cls-1" d="m2199.94,214.08v65.38h6.17v-65.38h-6.17Z"/>
        <path class="cls-1" d="m2263.04,256.71c0-13.81-9.95-23.95-24.31-23.95s-24.49,10.14-24.49,23.95,10.12,23.93,24.49,23.93c10.6,0,18.89-5.52,22.38-13.91h-6.72c-2.94,5.25-8.48,8.19-15.66,8.19-10.22,0-17.31-6.72-18.13-16.2h42.44v-2.02Zm-42.27-3.5c1.39-8.94,8.48-14.74,17.96-14.74s16.39,5.52,17.88,14.74h-35.83Z"/>
        <path class="cls-1" d="m2287.38,253.68c-6.44-.84-12.34-1.47-12.34-7.1,0-4.68,4.16-8.19,11.15-8.19s11.14,3.51,11.41,8.02h6.09c-.19-7.74-6.72-13.64-17.4-13.64s-17.4,5.81-17.4,14.36c0,10.05,9.29,11.33,17.5,12.34,6.53.84,12.32,1.49,12.32,7.01,0,4.87-4.41,8.56-12.32,8.56s-12.07-3.5-12.36-8.38h-6.25c.27,8.02,7.36,14,18.6,14s18.59-5.98,18.59-14.63c0-10.31-10.49-11.42-17.59-12.34Z"/>
        <path class="cls-1" d="m2359.56,274.94c-10.87,0-18.24-7.74-18.24-18.22s7.37-18.24,18.24-18.24c8.29,0,14.63,4.43,17.13,11.23h6.25c-2.66-10.12-11.6-16.94-23.38-16.94-14.36,0-24.5,10.14-24.5,23.95s10.14,23.93,24.5,23.93c11.79,0,20.72-6.82,23.38-16.94h-6.25c-2.5,6.82-8.84,11.23-17.13,11.23Z"/>
        <path class="cls-1" d="m2412.3,232.76c-14.36,0-24.49,10.14-24.49,23.95s10.12,23.93,24.49,23.93,24.49-10.12,24.49-23.93-10.12-23.95-24.49-23.95Zm0,42.18c-10.87,0-18.24-7.74-18.24-18.22s7.37-18.24,18.24-18.24,18.22,7.74,18.22,18.24-7.36,18.22-18.22,18.22Z"/>
        <path class="cls-1" d="m2495.13,232.76c-7.45,0-13.53,3.5-16.39,10.22-2.94-6.72-9.02-10.22-16.39-10.22-10.49,0-18.41,6.55-18.41,20.07v26.62h6.17v-26.62c0-9.67,5.35-14.36,12.7-14.36s12.89,4.89,12.89,14.36v26.62h6.17v-26.62c0-9.48,5.44-14.36,12.8-14.36s12.72,4.7,12.72,14.36v26.62h6.17v-26.62c0-13.53-7.93-20.07-18.43-20.07Z"/>
        <path class="cls-1" d="m2547.05,232.76c-14.1,0-24.31,9.59-24.31,24.22v41.91h6.17v-29.2c3.4,6.91,10.49,10.96,19.16,10.96,13.35,0,23.57-9.76,23.57-23.76s-10.14-24.12-24.58-24.12Zm.08,42.18c-10.95,0-18.22-7.74-18.22-18.22s7.28-18.24,18.22-18.24,18.24,7.74,18.24,18.24-7.37,18.22-18.24,18.22Z"/>
        <path class="cls-1" d="m2608.37,261.68v1.01c0,8.38-4.7,12.24-11.71,12.24s-11.69-3.95-11.69-12.24v-23.11h26.8v-5.62h-26.8v-16.12h-6.17v44.85c0,11.98,7.28,17.96,17.86,17.96s17.69-5.98,17.69-17.96v-1.01h-5.98Z"/>
        <path class="cls-1" d="m2668.39,256.71c0-13.81-9.93-23.95-24.31-23.95s-24.49,10.14-24.49,23.95,10.12,23.93,24.49,23.93c10.6,0,18.89-5.52,22.38-13.91h-6.72c-2.94,5.25-8.48,8.19-15.66,8.19-10.22,0-17.31-6.72-18.13-16.2h42.44v-2.02Zm-42.27-3.5c1.39-8.94,8.48-14.74,17.96-14.74s16.4,5.52,17.88,14.74h-35.83Z"/>
        <path class="cls-1" d="m2729.61,261.68v1.01c0,8.38-4.7,12.24-11.69,12.24s-11.71-3.95-11.71-12.24v-23.11h26.8v-5.62h-26.8v-16.12h-6.17v44.85c0,11.98,7.28,17.96,17.88,17.96s17.67-5.98,17.67-17.96v-1.01h-5.98Z"/>
        <path class="cls-1" d="m2765.33,232.76c-14.36,0-24.5,10.14-24.5,23.95s10.14,23.93,24.5,23.93,24.49-10.12,24.49-23.93-10.12-23.95-24.49-23.95Zm0,42.18c-10.87,0-18.24-7.74-18.24-18.22s7.37-18.24,18.24-18.24,18.22,7.74,18.22,18.24-7.36,18.22-18.22,18.22Z"/>
        <path class="cls-1" d="m2835.57,233.97v23.76c0,11.14-6.45,17.21-16.31,17.21s-16.29-6.08-16.29-17.21v-23.76h-6.17v23.76c0,15.09,9.03,22.92,22.46,22.92s22.48-7.83,22.48-22.92v-23.76h-6.17Z"/>
        <path class="cls-1" d="m2880.48,261.68v1.01c0,8.38-4.7,12.24-11.69,12.24s-11.71-3.95-11.71-12.24v-23.11h26.8v-5.62h-26.8v-16.12h-6.15v44.85c0,11.98,7.26,17.96,17.86,17.96s17.69-5.98,17.69-17.96v-1.01h-6Z"/>
        <path class="cls-1" d="m2940.52,256.71c0-13.81-9.95-23.95-24.31-23.95s-24.49,10.14-24.49,23.95,10.12,23.93,24.49,23.93c10.6,0,18.87-5.52,22.38-13.91h-6.72c-2.96,5.25-8.48,8.19-15.66,8.19-10.22,0-17.31-6.72-18.14-16.2h42.46v-2.02Zm-42.27-3.5c1.38-8.94,8.48-14.74,17.96-14.74s16.39,5.52,17.86,14.74h-35.82Z"/>
        <path class="cls-1" d="m2964.85,253.68c-6.44-.84-12.34-1.47-12.34-7.1,0-4.68,4.14-8.19,11.14-8.19s11.15,3.51,11.42,8.02h6.07c-.17-7.74-6.72-13.64-17.4-13.64s-17.4,5.81-17.4,14.36c0,10.05,9.3,11.33,17.5,12.34,6.53.84,12.34,1.49,12.34,7.01,0,4.87-4.41,8.56-12.34,8.56s-12.05-3.5-12.34-8.38h-6.26c.28,8.02,7.37,14,18.6,14s18.6-5.98,18.6-14.63c0-10.31-10.5-11.42-17.59-12.34Z"/>
      </g>
      <rect class="cls-2" x="1693.74" y="49.76" width="8.05" height="289.37" transform="translate(3395.53 388.9) rotate(-180)"/>
    </g>
  </g>
</svg>